<svg viewBox="0 0 52 52" fill="none" xmlns="http://www.w3.org/2000/svg">
<g filter="url(#filter0_d)">
<rect x="12" y="12" width="28" height="28" rx="4" fill="#6F6EFF"/>
</g>
<path fill-rule="evenodd" clip-rule="evenodd" d="M33.0457 22.0982C33.4378 22.183 33.8159 22.3203 34.1625 22.5169C36.0992 23.6224 36.5649 26.0307 35.2726 28.2461C34.4424 29.6702 32.6265 30.5061 31.0064 30.7138C30.7241 32.7417 28.5319 35 25.9999 35H25.9989C23.4669 34.9983 21.2754 32.7407 20.9933 30.7138C19.3722 30.5061 17.5573 29.6702 16.7271 28.2452C15.4353 26.0316 15.9012 23.6224 17.8353 22.5179C18.1835 22.3203 18.5624 22.1837 18.9545 22.0982C18.9501 22.0827 18.9453 22.0668 18.9405 22.0509C18.9339 22.0292 18.9273 22.0076 18.9219 21.9871L18.9216 21.9861C18.7833 21.4739 18.3651 19.9252 19.3423 18.6427C20.0508 17.7123 21.1279 17.4271 21.7082 17.2735L21.7104 17.2729C22.1873 17.1466 22.8236 17 23.4901 17C24.4919 17 25.3496 17.3425 26.0006 17.947C26.6515 17.3425 27.5092 17 28.511 17C29.1775 17 29.8131 17.1466 30.2934 17.2738C30.8707 17.4254 31.9487 17.7104 32.6581 18.642C33.6366 19.9253 33.2173 21.475 33.0793 21.9853L33.0792 21.9854C33.0744 22.0026 33.0689 22.0204 33.0634 22.0383C33.0573 22.0584 33.0511 22.0785 33.0457 22.0982ZM29.7367 19.3201C28.6208 19.0236 27.3815 18.8421 26.9671 20.3671C26.5537 21.893 27.1224 24.5514 28.2383 24.8466C29.3532 25.1424 30.5935 22.9637 31.0078 21.4378C31.4203 19.9118 30.8518 19.615 29.7367 19.3201ZM22.2633 19.3194C23.3791 19.0226 24.6187 18.8421 25.0328 20.3664C25.4453 21.8923 24.8775 24.5517 23.7616 24.8458C22.6465 25.1417 21.4072 22.9623 20.9921 21.4371C20.5787 19.9118 21.1474 19.6143 22.2633 19.3194ZM18.5847 27.1864C19.2915 28.3994 21.7787 28.9707 22.6657 28.4655C23.4258 28.0334 22.7597 26.9468 22.1072 25.8823L22.1072 25.8823L22.1071 25.8823C21.9991 25.706 21.8914 25.5304 21.7907 25.3584C21.0839 24.1445 19.794 23.847 18.9071 24.3522C18.0193 24.8591 17.8779 25.9748 18.5847 27.1864ZM25.9996 32.8805C24.4008 32.8795 23.1047 31.1952 23.1047 30.283C23.1047 29.518 24.0148 29.5374 25.2505 29.5638H25.2506C25.4895 29.5689 25.7406 29.5743 25.9996 29.5743C26.2616 29.5745 26.5154 29.5692 26.7568 29.5642L26.7569 29.5642C27.9884 29.5384 28.8945 29.5195 28.8945 30.283C28.8942 31.1942 27.5984 32.8805 25.9996 32.8805ZM29.3335 28.4662C30.2203 28.9707 32.7078 28.4001 33.4145 27.1871C34.1213 25.9757 33.9796 24.8601 33.0919 24.3532C32.2059 23.8486 30.9151 24.1454 30.2083 25.3594C30.1073 25.532 29.9993 25.7083 29.8909 25.8853C29.2394 26.9488 28.5747 28.0338 29.3335 28.4662Z" fill="white"/>
<defs>
<filter id="filter0_d" x="0" y="0" width="52" height="52" filterUnits="userSpaceOnUse" color-interpolation-filters="sRGB">
<feFlood flood-opacity="0" result="BackgroundImageFix"/>
<feColorMatrix in="SourceAlpha" type="matrix" values="0 0 0 0 0 0 0 0 0 0 0 0 0 0 0 0 0 0 127 0"/>
<feOffset/>
<feGaussianBlur stdDeviation="6"/>
<feColorMatrix type="matrix" values="0 0 0 0 0.435294 0 0 0 0 0.431373 0 0 0 0 1 0 0 0 0.5 0"/>
<feBlend mode="normal" in2="BackgroundImageFix" result="effect1_dropShadow"/>
<feBlend mode="normal" in="SourceGraphic" in2="effect1_dropShadow" result="shape"/>
</filter>
</defs>
</svg>
